<?xml version="1.0" encoding="UTF-8" standalone="no"?>
<svg
   xmlns:dc="http://purl.org/dc/elements/1.1/"
   xmlns:cc="http://creativecommons.org/ns#"
   xmlns:rdf="http://www.w3.org/1999/02/22-rdf-syntax-ns#"
   xmlns:svg="http://www.w3.org/2000/svg"
   xmlns="http://www.w3.org/2000/svg"
   viewBox="0 0 297.67999 172.41333"
   height="172.41333"
   width="297.67999"
   xml:space="preserve"
   id="svg2"
   version="1.1"><metadata
     id="metadata8"><rdf:RDF><cc:Work
         rdf:about=""><dc:format>image/svg+xml</dc:format><dc:type
           rdf:resource="http://purl.org/dc/dcmitype/StillImage" /></cc:Work></rdf:RDF></metadata><defs
     id="defs6" /><g
     transform="matrix(1.3333333,0,0,-1.3333333,0,172.41333)"
     id="g10"><g
       transform="scale(0.1)"
       id="g12"><path
         id="path14"
         style="fill:#110c15;fill-opacity:1;fill-rule:nonzero;stroke:none"
         d="M 2087.68,432.164 H 341.773 V 170.68 H 2087.68 v 261.484 0" /><path
         id="path16"
         style="fill:#b8a5b7;fill-opacity:1;fill-rule:nonzero;stroke:none"
         d="m 771.422,254.23 14.902,-83.55 h 870.306 l 15.43,83.55 H 771.422 v 0" /><path
         id="path18"
         style="fill:#b8a5b7;fill-opacity:1;fill-rule:nonzero;stroke:none"
         d="m 27.4414,254.23 c -38.4648,0 -34.65624,-83.55 -0.0117,-83.55 34.6484,0 314.3433,0 314.3433,0 l 15.426,83.55 c 0,0 -291.3006,0 -329.7576,0 v 0" /><path
         id="path20"
         style="fill:#b8a5b7;fill-opacity:1;fill-rule:nonzero;stroke:none"
         d="m 2232.64,189.73 v 45.45 c 0,10.511 -9.14,19.05 -20.4,19.05 h -12.11 -136.1 l 18.08,-83.55 h 118.02 12.11 c 11.26,0 20.4,8.539 20.4,19.05 v 0" /><path
         id="path22"
         style="fill:#ece7ed;fill-opacity:1;fill-rule:nonzero;stroke:none"
         d="M 41.1484,505.184 41.1523,254.23 H 357.199 c 0,0 56.992,125.473 215.332,125.473 158.34,0 198.891,-125.473 198.891,-125.473 h 900.638 c 0,3.821 39.63,115.758 202.47,115.758 162.84,0 189.5,-115.758 189.5,-115.758 h 134.18 V 505.184 H 41.1484 v 0" /><path
         id="path24"
         style="fill:#ee2849;fill-opacity:1;fill-rule:nonzero;stroke:none"
         d="m 1712.98,1057.45 v 32.94 H 156.867 l -23.941,-32.94 H 1712.98 v 0" /><path
         id="path26"
         style="fill:#ee2849;fill-opacity:1;fill-rule:nonzero;stroke:none"
         d="m 1712.98,1090.39 -19.46,32.95 H 164.484 l -7.617,-32.95 H 1712.98 v 0" /><path
         id="path28"
         style="fill:#dbdae3;fill-opacity:1;fill-rule:nonzero;stroke:none"
         d="M 2163.42,652.75 H 41.1484 v 45.07 H 1928.12 l 235.3,-45.07 v 0" /><path
         id="path30"
         style="fill:#d62944;fill-opacity:1;fill-rule:nonzero;stroke:none"
         d="M 41.1484,255.18 H 2198.21 v 84.777 H 41.1484 v -84.777 0" /><path
         id="path32"
         style="fill:#040606;fill-opacity:1;fill-rule:nonzero;stroke:none"
         d="M 41.1484,339.957 H 2198.21 l 1.67,70.762 L 41.1484,402.75 v -62.793 0" /><path
         id="path34"
         style="fill:#ee2849;fill-opacity:1;fill-rule:nonzero;stroke:none"
         d="M 41.1484,399.957 H 2198.21 l 1.67,70.762 L 41.1484,462.75 v -62.793 0" /><path
         id="path36"
         style="fill:#f57a41;fill-opacity:1;fill-rule:nonzero;stroke:none"
         d="m 2072.28,542.32 h -55.14 c -8.47,0 -15.39,6.926 -15.39,15.391 0,8.469 6.92,15.391 15.39,15.391 h 55.14 c 8.47,0 15.4,-6.922 15.4,-15.391 0,-8.465 -6.93,-15.391 -15.4,-15.391 v 0" /><path
         id="path38"
         style="fill:#f57a41;fill-opacity:1;fill-rule:nonzero;stroke:none"
         d="M 126.551,542.32 H 73.5625 c -9.0586,0 -17.1836,6.926 -17.1836,15.391 0,8.469 8.125,15.391 17.1836,15.391 h 52.9885 c 9.062,0 16.469,-6.922 16.469,-15.391 0,-8.465 -7.407,-15.391 -16.469,-15.391 v 0" /><path
         id="path40"
         style="fill:#ece7ed;fill-opacity:1;fill-rule:nonzero;stroke:none"
         d="m 1914.14,721.215 h -21.51 c -4.61,0 -8.94,2.226 -11.54,5.957 l -167.02,283.488 c -6.4,9.13 0.27,21.56 11.57,21.56 h 2.43 l -15.09,25.23 H 132.926 L 41.1484,697.824 H 1928.12 l -13.98,23.391 m -147.54,0 h -288.51 c -14.71,0 -26.61,11.687 -26.61,26.098 l 11.7,257.297 c 2.93,18.52 11.91,26.1 26.61,26.1 h 146.56 c 8.78,0 17.01,-4.25 21.97,-11.38 l 130.25,-257.291 c 12.07,-17.32 -0.58,-40.824 -21.97,-40.824" /><path
         id="path42"
         style="fill:#ee2545;fill-opacity:1;fill-rule:nonzero;stroke:none"
         d="M 1467.36,1293.11 H 1576 l 28.74,-63.22 h -166.13 l 28.75,63.22 v 0" /><path
         id="path44"
         style="fill:#90889a;fill-opacity:1;fill-rule:nonzero;stroke:none"
         d="m 1438.61,1209.44 h 166.13 v 20.45 h -166.13 v -20.45 0" /><path
         id="path46"
         style="fill:#55545f;fill-opacity:1;fill-rule:nonzero;stroke:none"
         d="m 1493.41,1193.35 h 56.52 v 16.09 h -56.52 v -16.09 0" /><path
         id="path48"
         style="fill:#322541;fill-opacity:1;fill-rule:nonzero;stroke:none"
         d="M 389.898,176.191 C 389.898,78.8789 469.156,0 566.953,0 664.742,0 744.02,78.8789 744.02,176.191 c 0,97.321 -79.278,176.207 -177.067,176.207 -97.797,0 -177.055,-78.886 -177.055,-176.207 v 0" /><path
         id="path50"
         style="fill:#bbb0b5;fill-opacity:1;fill-rule:nonzero;stroke:none"
         d="m 472.824,176.191 c 0,-51.73 42.149,-93.6519 94.129,-93.6519 51.988,0 94.129,41.9219 94.129,93.6519 0,51.739 -42.141,93.668 -94.129,93.668 -51.98,0 -94.129,-41.929 -94.129,-93.668 v 0" /><path
         id="path52"
         style="fill:#a1989d;fill-opacity:1;fill-rule:nonzero;stroke:none"
         d="m 487.965,176.191 h -4.567 c 0,-22.953 9.368,-43.769 24.481,-58.812 15.105,-15.047 36.019,-24.3595 59.074,-24.3595 23.055,0 43.961,9.3125 59.074,24.3595 15.114,15.043 24.477,35.859 24.477,58.812 0,22.969 -9.363,43.789 -24.477,58.829 -15.113,15.039 -36.019,24.351 -59.074,24.351 -23.055,0 -43.969,-9.312 -59.074,-24.351 -15.113,-15.04 -24.481,-35.86 -24.481,-58.829 h 4.567 4.562 c 0.004,20.457 8.321,38.938 21.789,52.36 13.481,13.41 32.063,21.687 52.637,21.687 20.574,0 39.152,-8.277 52.633,-21.687 13.477,-13.422 21.793,-31.903 21.793,-52.36 0,-20.441 -8.316,-38.921 -21.793,-52.339 -13.481,-13.411 -32.059,-21.692 -52.633,-21.692 -20.574,0 -39.156,8.281 -52.637,21.692 -13.468,13.418 -21.785,31.898 -21.789,52.339 h -4.562 v 0" /><path
         id="path54"
         style="fill:#a1989d;fill-opacity:1;fill-rule:nonzero;stroke:none"
         d="m 514.211,176.191 c 0,-28.98 23.617,-52.472 52.742,-52.472 29.133,0 52.746,23.492 52.746,52.472 0,28.989 -23.613,52.489 -52.746,52.489 -29.125,0 -52.742,-23.5 -52.742,-52.489 v 0" /><path
         id="path56"
         style="fill:#bbb0b5;fill-opacity:1;fill-rule:nonzero;stroke:none"
         d="m 561.188,221.309 c 23.332,4.511 44.875,-13.411 48.222,-36.118 0.317,-2.16 0.383,-4.461 -0.008,-6.621 l 0.008,-0.05 c 0.824,-10.918 -8.14,-19.469 -18.992,-14.411 -4.969,2.289 -7.613,6.813 -11.324,10.539 -4.18,4.204 -9.528,7.114 -15.11,9.032 -8.839,3.07 -19.652,5.691 -21.16,16.629 -1.519,11.132 8.321,19.062 18.364,21 v 0" /><path
         id="path58"
         style="fill:#888488;fill-opacity:1;fill-rule:nonzero;stroke:none"
         d="m 523.422,192.898 c 2.894,5.84 12.074,4.133 13.644,-1.777 1.653,-6.199 3.207,-12.43 4.942,-18.59 2.051,-7.32 5.328,-10.66 12.594,-13.14 12.816,-4.34 26.64,-3.993 40.015,-3.84 6.903,0.097 9.262,-7.961 5.278,-12.672 -2.934,-3.469 -6.606,-5.75 -10.649,-7.219 -16.539,-9.121 -40.379,-5.051 -54.523,6.399 -15.121,12.23 -19.891,33.492 -11.301,50.839 v 0" /><path
         id="path60"
         style="fill:#322541;fill-opacity:1;fill-rule:nonzero;stroke:none"
         d="M 1692.29,176.191 C 1692.29,78.8789 1771.56,0 1869.35,0 c 97.79,0 177.06,78.8789 177.06,176.191 0,97.321 -79.27,176.207 -177.06,176.207 -97.79,0 -177.06,-78.886 -177.06,-176.207 v 0" /><path
         id="path62"
         style="fill:#bbb0b5;fill-opacity:1;fill-rule:nonzero;stroke:none"
         d="m 1775.23,176.191 c 0,-51.73 42.13,-93.6519 94.12,-93.6519 51.99,0 94.13,41.9219 94.13,93.6519 0,51.739 -42.14,93.668 -94.13,93.668 -51.99,0 -94.12,-41.929 -94.12,-93.668 v 0" /><path
         id="path64"
         style="fill:#a1989d;fill-opacity:1;fill-rule:nonzero;stroke:none"
         d="m 1790.37,176.191 h -4.57 c 0,-22.953 9.37,-43.769 24.48,-58.812 15.1,-15.047 36.02,-24.3595 59.07,-24.3595 23.06,0 43.97,9.3125 59.08,24.3595 15.12,15.043 24.48,35.859 24.47,58.812 0.01,22.969 -9.35,43.789 -24.47,58.829 -15.11,15.039 -36.02,24.351 -59.08,24.351 -23.05,0 -43.97,-9.312 -59.07,-24.351 -15.11,-15.04 -24.48,-35.86 -24.48,-58.829 h 4.57 4.55 c 0.01,20.457 8.32,38.938 21.8,52.36 13.48,13.41 32.05,21.687 52.63,21.687 20.58,0 39.16,-8.277 52.64,-21.687 13.48,-13.422 21.78,-31.903 21.79,-52.36 -0.01,-20.441 -8.31,-38.929 -21.79,-52.339 -13.48,-13.411 -32.06,-21.692 -52.64,-21.692 -20.58,0 -39.15,8.281 -52.63,21.692 -13.48,13.418 -21.79,31.898 -21.8,52.339 h -4.55 v 0" /><path
         id="path66"
         style="fill:#a1989d;fill-opacity:1;fill-rule:nonzero;stroke:none"
         d="m 1816.61,176.191 c 0,-28.98 23.63,-52.472 52.74,-52.472 29.14,0 52.75,23.492 52.75,52.472 0,28.989 -23.61,52.489 -52.75,52.489 -29.11,0 -52.74,-23.5 -52.74,-52.489 v 0" /><path
         id="path68"
         style="fill:#bbb0b5;fill-opacity:1;fill-rule:nonzero;stroke:none"
         d="m 1863.6,221.309 c 23.34,4.511 44.87,-13.411 48.22,-36.118 0.31,-2.16 0.37,-4.461 -0.02,-6.621 l 0.02,-0.05 c 0.82,-10.918 -8.15,-19.469 -19.01,-14.411 -4.96,2.289 -7.61,6.813 -11.31,10.539 -4.18,4.204 -9.54,7.114 -15.1,9.032 -8.85,3.07 -19.66,5.691 -21.16,16.629 -1.53,11.132 8.3,19.062 18.36,21 v 0" /><path
         id="path70"
         style="fill:#888488;fill-opacity:1;fill-rule:nonzero;stroke:none"
         d="m 1825.82,192.898 c 2.89,5.84 12.08,4.133 13.64,-1.777 1.65,-6.199 3.22,-12.43 4.95,-18.59 2.04,-7.32 5.33,-10.66 12.58,-13.14 12.84,-4.34 26.66,-3.993 40.02,-3.84 6.92,0.097 9.27,-7.961 5.29,-12.672 -2.94,-3.469 -6.6,-5.75 -10.65,-7.219 -16.53,-9.121 -40.38,-5.051 -54.53,6.399 -15.12,12.23 -19.88,33.492 -11.3,50.839 v 0" /><path
         id="path72"
         style="fill:#dbdae3;fill-opacity:1;fill-rule:nonzero;stroke:none"
         d="M 1693.9,1212.2 H 196.035 c -10.695,0 -19.449,-8.17 -19.449,-18.17 l -12.102,-70.69 H 1693.9 v 88.86 0" /><path
         id="path74"
         style="fill:#c7c8cf;fill-opacity:1;fill-rule:nonzero;stroke:none"
         d="M 1693.9,1212.2 H 229.316 v 21.82 H 1693.9 v -21.82 0" /><path
         id="path76"
         style="fill:#544169;fill-opacity:1;fill-rule:nonzero;stroke:none"
         d="m 2162.54,362.059 c -16.7,0 -30.26,12.781 -30.26,28.484 v 141.789 c 0,15.711 13.56,28.496 30.26,28.496 h 39.78 V 362.059 h -39.78 v 0" /><path
         id="path78"
         style="fill:#141322;fill-opacity:1;fill-rule:nonzero;stroke:none"
         d="M 2199.21,557.711 V 365.164 h -36.67 c -14.93,0 -27.16,11.414 -27.16,25.379 v 141.789 c 0,13.965 12.23,25.379 27.16,25.379 h 36.67 m 6.21,6.211 h -6.21 -36.67 c -18.4,0 -33.37,-14.16 -33.37,-31.59 V 390.543 c 0,-17.422 14.97,-31.59 33.37,-31.59 h 36.67 6.21 v 6.211 192.547 6.211 0" /><path
         id="path80"
         style="fill:#f57a41;fill-opacity:1;fill-rule:nonzero;stroke:none"
         d="m 2199.21,420.289 h -30.84 c -4.66,0 -8.47,-3.562 -8.47,-7.91 V 390.25 c 0,-4.355 3.81,-7.918 8.47,-7.918 h 30.84 v 37.957 0" /><path
         id="path82"
         style="fill:#decde3;fill-opacity:1;fill-rule:nonzero;stroke:none"
         d="m 2199.21,538.922 h -30.84 c -4.66,0 -8.47,-3.555 -8.47,-7.899 v -90.957 c 0,-4.347 3.81,-7.902 8.47,-7.902 h 30.84 v 106.758 0" /><path
         id="path84"
         style="fill:#a6caed;fill-opacity:1;fill-rule:nonzero;stroke:none"
         d="m 1766.6,721.215 h -273.93 l 248.15,135.144 47.75,-94.32 c 3.23,-4.633 4.69,-9.715 4.68,-14.664 -0.01,-13.555 -10.98,-26.16 -26.65,-26.16" /><path
         id="path86"
         style="fill:#a6caed;fill-opacity:1;fill-rule:nonzero;stroke:none"
         d="m 1458.59,903.629 4.59,100.981 c 2.93,18.52 11.91,26.1 26.61,26.1 h 146.56 c 8.78,0 17.01,-4.25 21.97,-11.38 l 0.85,-1.69 -200.36,-109.128 -0.22,-4.883 m -2.65,-58.25 1.65,36.297 211.97,115.441 15,-29.629 -0.95,1.883 -227.68,-123.996 m -4.4,-97.129 1.57,34.692 254.68,138.699 13.41,-26.524 -269.67,-146.875" /><path
         id="path88"
         style="fill:#a6caed;fill-opacity:1;fill-rule:nonzero;stroke:none"
         d="m 1914.14,721.215 h -5.02 l 3.77,2.055 -41.07,68.679 -21.89,-11.906 31.16,-52.871 -63.17,107.207 8.42,-14.285 21.6,11.765 -17.67,29.524 -21.39,-11.649 -94.81,160.926 c -1.71,2.44 -2.49,5.13 -2.49,7.73 -0.01,7.16 5.78,13.83 14.06,13.83 h 2.43 l 186.07,-311.005" /><path
         id="path90"
         style="fill:#a6caed;fill-opacity:1;fill-rule:nonzero;stroke:none"
         d="m 951.473,754.078 c -0.035,0 -0.071,0 -0.106,0 0.035,0 0.071,0 0.106,0" /><path
         id="path92"
         style="fill:#a6caed;fill-opacity:1;fill-rule:nonzero;stroke:none"
         d="m 951.34,754.078 c -0.024,0 -0.051,0 -0.078,0 0.027,0 0.054,0 0.078,0" /><path
         id="path94"
         style="fill:#a6caed;fill-opacity:1;fill-rule:nonzero;stroke:none"
         d="m 951.23,754.078 c -0.027,0 -0.05,0 -0.082,0 0.032,0 0.055,0 0.082,0" /><path
         id="path96"
         style="fill:#a6caed;fill-opacity:1;fill-rule:nonzero;stroke:none"
         d="m 1217.58,977.098 c 0.01,0.027 0.02,0.054 0.03,0.082 -0.01,-0.028 -0.02,-0.055 -0.03,-0.082" /><path
         id="path98"
         style="fill:#a6caed;fill-opacity:1;fill-rule:nonzero;stroke:none"
         d="m 1217.63,977.258 v 0.004 -0.004" /><path
         id="path100"
         style="fill:#a6caed;fill-opacity:1;fill-rule:nonzero;stroke:none"
         d="m 1218.25,981.957 v 0 0" /><path
         id="path102"
         style="fill:#a6caed;fill-opacity:1;fill-rule:nonzero;stroke:none"
         d="m 1218.25,982.035 c 0,0.008 0,0.02 0,0.028 0,-0.008 0,-0.02 0,-0.028" /><path
         id="path104"
         style="fill:#f2eef1;fill-opacity:1;fill-rule:nonzero;stroke:none"
         d="m 1457.58,881.672 1.01,21.957 -1,-21.953 -0.01,-0.004" /><path
         id="path106"
         style="fill:#f2eef1;fill-opacity:1;fill-rule:nonzero;stroke:none"
         d="m 1669.56,997.117 -10.39,20.523 v 0 l 10.39,-20.523" /><path
         id="path108"
         style="fill:#c5d9f2;fill-opacity:1;fill-rule:nonzero;stroke:none"
         d="m 1457.59,881.676 1,21.953 0.22,4.883 200.36,109.128 10.39,-20.523 -211.97,-115.441" /><path
         id="path110"
         style="fill:#f2eef1;fill-opacity:1;fill-rule:nonzero;stroke:none"
         d="m 1453.1,782.934 2.83,62.441 -2.83,-62.437 v -0.004" /><path
         id="path112"
         style="fill:#f2eef1;fill-opacity:1;fill-rule:nonzero;stroke:none"
         d="m 1707.78,921.637 -23.22,45.851 23.22,-45.851" /><path
         id="path114"
         style="fill:#c5d9f2;fill-opacity:1;fill-rule:nonzero;stroke:none"
         d="m 1453.1,782.938 2.84,62.441 227.67,123.992 0.95,-1.883 23.22,-45.851 -254.68,-138.703" /><path
         id="path116"
         style="fill:#f2eef1;fill-opacity:1;fill-rule:nonzero;stroke:none"
         d="m 1740.82,856.359 -19.63,38.754 h 0.01 l 19.62,-38.754" /><path
         id="path118"
         style="fill:#c5d9f2;fill-opacity:1;fill-rule:nonzero;stroke:none"
         d="m 1492.67,721.215 h -14.58 c -14.71,0 -26.61,11.687 -26.61,26.098 v 0 l 0.05,0.933 269.67,146.867 19.62,-38.754 -248.15,-135.144" /><path
         id="path120"
         style="fill:#c5d9f2;fill-opacity:1;fill-rule:nonzero;stroke:none"
         d="m 1909.12,721.215 h -16.49 c -4.61,0 -8.94,2.226 -11.54,5.957 v 0 l -31.16,52.871 21.89,11.906 41.07,-68.679 -3.77,-2.055" /><path
         id="path122"
         style="fill:#f2eef1;fill-opacity:1;fill-rule:nonzero;stroke:none"
         d="m 1817.92,834.379 -9.04,15.355 v 0 l 9.04,-15.355" /><path
         id="path124"
         style="fill:#c5d9f2;fill-opacity:1;fill-rule:nonzero;stroke:none"
         d="m 1826.34,820.094 -8.42,14.285 -9.04,15.355 21.39,11.649 17.67,-29.524 -21.6,-11.765" /><path
         id="path126"
         style="fill:#f2eef1;fill-opacity:1;fill-rule:nonzero;stroke:none"
         d="m 1218.25,982.063 c 0,0.019 0,0.035 0,0.054 0,-0.019 0,-0.035 0,-0.054 m 0,-0.106 c 0,0.023 0,0.051 0,0.078 0,-0.027 0,-0.055 0,-0.078 m -0.62,-4.695 c 0.39,1.578 0.58,3.152 0.62,4.695 -0.04,-1.543 -0.23,-3.117 -0.62,-4.695 m -0.02,-0.082 c 0,0.023 0.01,0.054 0.02,0.078 -0.01,-0.024 -0.02,-0.055 -0.02,-0.078 m -10.05,-39.352 10.02,39.27 v 0 0 l -10.01,-39.27 m -278.5,-151.668 3.739,14.656 -3.739,-14.656 v 0" /><path
         id="path128"
         style="fill:#f2eef1;fill-opacity:1;fill-rule:nonzero;stroke:none"
         d="m 957.609,897.992 4.922,19.266 -4.922,-19.266 v 0" /><path
         id="path130"
         style="fill:#f2eef1;fill-opacity:1;fill-rule:nonzero;stroke:none"
         d="m 951.148,754.078 c -0.003,0 -0.007,0 -0.019,0 0.012,0 0.016,0 0.019,0 m 0.114,0 c -0.008,0 -0.02,0 -0.032,0 0.012,0 0.024,0 0.032,0 m 0.105,0 c -0.008,0 -0.019,0 -0.027,0 0.008,0 0.019,0 0.027,0" /><path
         id="path132"
         style="fill:#141322;fill-opacity:1;fill-rule:nonzero;stroke:none"
         d="m 1636.35,1030.71 c 8.78,0 17.01,-4.25 21.97,-11.38 l 130.25,-257.291 c 12.07,-17.32 -0.58,-40.824 -21.97,-40.824 h -288.51 c -14.71,0 -26.6,11.687 -26.6,26.098 l 11.69,257.297 c 2.93,18.51 11.91,26.1 26.61,26.1 h 146.56 m 0,9.59 h -146.56 c -14.01,0 -31.62,-5.93 -36.1,-34.19 -0.05,-0.35 -0.09,-0.71 -0.11,-1.07 L 1441.9,747.75 c -0.01,-0.141 -0.01,-0.293 -0.01,-0.437 0,-19.688 16.23,-35.704 36.2,-35.704 h 288.51 c 13.63,0 25.96,7.422 32.2,19.375 6.08,11.649 5.35,25.043 -1.94,35.946 l -129.98,256.73 c -0.2,0.41 -0.42,0.79 -0.69,1.16 -6.74,9.7 -17.91,15.48 -29.84,15.48 v 0" /><path
         id="path134"
         style="fill:#141322;fill-opacity:1;fill-rule:nonzero;stroke:none"
         d="m 1728.07,1032.22 186.07,-311.005 h -21.51 c -4.61,0 -8.94,2.226 -11.54,5.957 l -167.02,283.488 c -6.4,9.13 0.27,21.56 11.57,21.56 h 2.43 m 5.45,9.6 h -5.45 -2.43 c -8.91,0 -16.96,-4.86 -21.02,-12.69 -3.92,-7.56 -3.41,-16.58 1.36,-23.63 l 166.83,-283.199 0.19,-0.324 0.2,-0.309 c 4.42,-6.293 11.68,-10.059 19.43,-10.059 h 21.51 16.93 l -8.7,14.532 -186.07,310.999 -2.78,4.68 v 0" /><path
         id="path136"
         style="fill:#c5d9f2;fill-opacity:1;fill-rule:nonzero;stroke:none"
         d="m 907.254,893.039 6.027,21.809 4.176,20.41 144.453,68.412 h 130.28 L 905.859,884.227" /><path
         id="path138"
         style="fill:#a6caed;fill-opacity:1;fill-rule:nonzero;stroke:none"
         d="m 1240.18,752.984 -262.883,-2 286.633,84.223 -11.89,54.648 -359.181,-135.414 c 3.598,-2.121 7.86,-3.394 12.5,-3.453 -13.488,0.172 -23.839,10.528 -23.824,22.535 0,1.735 0.219,3.497 0.668,5.27 l 1.094,4.277 378.773,146.082 1.6,-158.832 c -2.59,-10.16 -12.32,-17.336 -23.49,-17.336" /><path
         id="path140"
         style="fill:#a6caed;fill-opacity:1;fill-rule:nonzero;stroke:none"
         d="m 887.039,797.727 24.801,97.171 278.49,106.912 h -130.27 l -140.458,-76.501 -2.848,-11.145 17.945,70.313 c 2.594,10.16 12.313,17.333 23.496,17.333 H 1230.5 c 13.65,0 24.18,-10.435 24.17,-22.54 0,-0.082 0,-0.165 0,-0.25 0.09,6.964 2.29,12.527 4.38,-1.704 L 963.516,855.809 887.039,797.727" /><path
         id="path142"
         style="fill:#c5d9f2;fill-opacity:1;fill-rule:nonzero;stroke:none"
         d="m 883.297,783.07 10.039,49.2 70.18,23.539 295.534,121.507 c 7.43,-43.296 -4.29,8.668 -4.38,1.704 0,-0.012 0,-0.032 0,-0.047 0,-0.012 0,-0.024 0,-0.035 0,-0.024 0,-0.047 0,-0.075 v 0 c -0.03,-1.547 -0.23,-3.113 -0.63,-4.691 0,-0.004 0,-0.004 0,-0.008 -0.01,-0.027 -0.01,-0.051 -0.01,-0.074 -0.01,-0.031 -0.02,-0.059 -0.02,-0.09 v 0 l 8.06,-44.852 L 883.297,783.07" /><path
         id="path144"
         style="fill:#c5d9f2;fill-opacity:1;fill-rule:nonzero;stroke:none"
         d="m 980.242,747.836 h -71.597 l -1.344,-3.297 c -0.035,0 -3.262,0.977 -3.293,0.977 -0.012,0 1.863,0.464 1.851,0.464 -0.023,0 0.946,2.227 0.918,2.227 -0.007,0 -1.214,0 -1.222,0 -0.028,0 -4.774,-0.371 -4.797,-0.371 -0.008,0 0.004,3.246 0,3.246 -4.637,0.059 -8.93,2.984 -12.528,5.102 l 372.68,136.39 4.87,-55.511 -285.694,-86.446" /><path
         id="path146"
         style="fill:#141322;fill-opacity:1;fill-rule:nonzero;stroke:none"
         d="m 1230.5,1001.81 c 15.61,0 22.37,-12.583 23.51,-27.81 l 9.66,-203.68 c -2.59,-10.16 -12.32,-17.336 -23.49,-17.336 l -334.481,-2 c -15.605,0 -27.117,13.621 -23.496,27.809 l 52.496,205.684 c 2.594,10.16 12.313,17.333 23.496,17.333 H 1230.5 m 0,9.6 H 958.195 c -15.609,0 -29.105,-10.1 -32.789,-24.558 L 872.902,781.164 c -2.379,-9.301 -0.316,-19.059 5.661,-26.742 6.429,-8.285 16.328,-13.031 27.136,-13.031 l 334.481,1.996 c 15.61,0 29.1,10.097 32.79,24.551 l -9.67,203.691 c -0.69,12.496 0.32,19.051 -5.66,26.746 -6.44,8.295 -16.33,13.035 -27.14,13.035 v 0" /><path
         id="path148"
         style="fill:#adafb8;fill-opacity:1;fill-rule:nonzero;stroke:none"
         d="m 1664.36,1057.05 192.85,-359.632 1.49,0.801 -192.86,359.631" /><path
         id="path150"
         style="fill:#adafb8;fill-opacity:1;fill-rule:nonzero;stroke:none"
         d="m 1376.23,254.23 v 390.973 l 32.48,410.447 -4.78,0.38 -32.5,-410.632 V 254.23 h 4.8 v 0" /><path
         id="path152"
         style="fill:#adafb8;fill-opacity:1;fill-rule:nonzero;stroke:none"
         d="m 1855.56,369.598 h 4.793 v 328.223 h -4.793 z" /><path
         id="path154"
         style="fill:#adafb8;fill-opacity:1;fill-rule:nonzero;stroke:none"
         d="m 807.758,254.23 h 4.80078 v 803.219 H 807.758 Z" /><g
         transform="scale(10)"
         id="g156"><text
           id="text162"
           style="font-variant:normal;font-size:14.92523956px;font-family:FranklinGothic;-inkscape-font-specification:FranklinGothic-DemiCond;writing-mode:lr-tb;fill:#ee2849;fill-opacity:1;fill-rule:nonzero;stroke:none"
           transform="matrix(1,0,0,-0.80400717,28.6059,89.4023)"><tspan
             id="tspan158"
             y="0"
             x="0 7.7978201 15.428158 26.614616">SAMU</tspan><tspan
             id="tspan160"
             y="13.848633"
             x="7.5464501 15.045441 22.675777">192</tspan></text>
</g></g></g></svg>