<?xml version="1.0" encoding="UTF-8" standalone="no"?>
<svg
   xmlns:dc="http://purl.org/dc/elements/1.1/"
   xmlns:cc="http://creativecommons.org/ns#"
   xmlns:rdf="http://www.w3.org/1999/02/22-rdf-syntax-ns#"
   xmlns:svg="http://www.w3.org/2000/svg"
   xmlns="http://www.w3.org/2000/svg"
   viewBox="0 0 297.67999 172.41333"
   height="172.41333"
   width="297.67999"
   xml:space="preserve"
   id="svg2"
   version="1.1"><metadata
     id="metadata8"><rdf:RDF><cc:Work
         rdf:about=""><dc:format>image/svg+xml</dc:format><dc:type
           rdf:resource="http://purl.org/dc/dcmitype/StillImage" /></cc:Work></rdf:RDF></metadata><defs
     id="defs6" /><g
     transform="matrix(1.3333333,0,0,-1.3333333,0,172.41333)"
     id="g10"><g
       transform="scale(0.1)"
       id="g12"><path
         id="path14"
         style="fill:#110c15;fill-opacity:1;fill-rule:nonzero;stroke:none"
         d="M 144.961,432.16 H 1890.87 V 170.691 H 144.961 v 261.469 0" /><path
         id="path16"
         style="fill:#b8a5b7;fill-opacity:1;fill-rule:nonzero;stroke:none"
         d="m 1461.22,254.23 -14.91,-83.539 H 576.004 l -15.426,83.539 h 900.642 v 0" /><path
         id="path18"
         style="fill:#b8a5b7;fill-opacity:1;fill-rule:nonzero;stroke:none"
         d="m 2205.2,254.23 c 38.46,0 34.66,-83.539 0.01,-83.539 -34.64,0 -314.34,0 -314.34,0 l -15.43,83.539 c 0,0 291.3,0 329.76,0 v 0" /><path
         id="path20"
         style="fill:#b8a5b7;fill-opacity:1;fill-rule:nonzero;stroke:none"
         d="m -0.00390625,189.738 v 45.442 c 0,10.519 9.14062625,19.05 20.41020625,19.05 H 32.5078 168.621 l -18.09,-83.539 H 32.5078 20.4063 c -11.26958,0 -20.41020625,8.52 -20.41020625,19.047 v 0" /><path
         id="path22"
         style="fill:#ece7ed;fill-opacity:1;fill-rule:nonzero;stroke:none"
         d="M 2191.49,505.188 V 254.23 h -316.05 c 0,0 -56.99,125.481 -215.33,125.481 -158.34,0 -198.89,-125.481 -198.89,-125.481 H 560.578 c 0,3.829 -39.629,115.762 -202.465,115.762 C 195.27,369.992 168.621,254.23 168.621,254.23 H 34.4258 V 505.188 H 2191.49 v 0" /><path
         id="path24"
         style="fill:#ee2849;fill-opacity:1;fill-rule:nonzero;stroke:none"
         d="m 519.66,1057.45 v 32.94 h 1556.11 l 23.95,-32.94 H 519.66 v 0" /><path
         id="path26"
         style="fill:#ee2849;fill-opacity:1;fill-rule:nonzero;stroke:none"
         d="m 519.66,1090.39 19.457,32.95 H 2068.16 l 7.61,-32.95 H 519.66 v 0" /><path
         id="path28"
         style="fill:#dbdae3;fill-opacity:1;fill-rule:nonzero;stroke:none"
         d="M 69.2227,652.754 H 2191.49 V 697.82 H 304.52 L 69.2227,652.754 v 0" /><path
         id="path30"
         style="fill:#d62944;fill-opacity:1;fill-rule:nonzero;stroke:none"
         d="M 2191.49,255.191 H 34.4258 v 84.774 H 2191.49 v -84.774 0" /><path
         id="path32"
         style="fill:#040606;fill-opacity:1;fill-rule:nonzero;stroke:none"
         d="M 2191.49,339.965 H 34.4258 l -1.6641,70.75 2158.7283,-7.957 v -62.793 0" /><path
         id="path34"
         style="fill:#ee2849;fill-opacity:1;fill-rule:nonzero;stroke:none"
         d="M 2191.49,399.965 H 34.4258 l -1.6641,70.75 2158.7283,-7.957 v -62.793 0" /><path
         id="path36"
         style="fill:#f57a41;fill-opacity:1;fill-rule:nonzero;stroke:none"
         d="m 160.363,542.316 h 55.133 c 8.473,0 15.395,6.926 15.395,15.391 0,8.469 -6.922,15.391 -15.395,15.391 h -55.133 c -8.472,0 -15.402,-6.922 -15.402,-15.391 0,-8.465 6.93,-15.391 15.402,-15.391 v 0" /><path
         id="path38"
         style="fill:#f57a41;fill-opacity:1;fill-rule:nonzero;stroke:none"
         d="m 2106.1,542.316 h 52.98 c 9.06,0 17.18,6.926 17.18,15.391 0,8.469 -8.12,15.391 -17.18,15.391 h -52.98 c -9.07,0 -16.48,-6.922 -16.48,-15.391 0,-8.465 7.41,-15.391 16.48,-15.391 v 0" /><path
         id="path40"
         style="fill:#ece7ed;fill-opacity:1;fill-rule:nonzero;stroke:none"
         d="M 318.504,721.215 304.52,697.824 h 1886.97 l -91.77,359.626 H 519.66 l -15.086,-25.22 h 2.438 c 11.297,0 17.957,-12.44 11.554,-21.57 L 351.555,727.172 c -2.602,-3.731 -6.926,-5.957 -11.543,-5.957 h -21.508 m 147.535,0 c -21.394,0 -34.027,23.5 -21.969,40.824 l 130.254,257.301 c 4.949,7.12 13.188,11.37 21.969,11.37 h 146.562 c 14.696,0 23.676,-7.58 26.61,-26.1 l 11.707,-257.297 c 0,-14.411 -11.914,-26.098 -26.613,-26.098 h -288.52" /><path
         id="path42"
         style="fill:#ee2545;fill-opacity:1;fill-rule:nonzero;stroke:none"
         d="M 765.293,1293.11 H 656.645 l -28.743,-63.22 h 166.125 l -28.734,63.22 v 0" /><path
         id="path44"
         style="fill:#90889a;fill-opacity:1;fill-rule:nonzero;stroke:none"
         d="M 794.027,1209.44 H 627.902 v 20.45 h 166.125 v -20.45 0" /><path
         id="path46"
         style="fill:#55545f;fill-opacity:1;fill-rule:nonzero;stroke:none"
         d="m 739.23,1193.35 h -56.523 v 16.09 h 56.523 v -16.09 0" /><path
         id="path48"
         style="fill:#322541;fill-opacity:1;fill-rule:nonzero;stroke:none"
         d="m 1842.75,176.191 c 0,-97.3004 -79.27,-176.2027188 -177.06,-176.2027188 -97.79,0 -177.06,78.9023188 -177.06,176.2027188 0,97.321 79.27,176.204 177.06,176.204 97.79,0 177.06,-78.883 177.06,-176.204 v 0" /><path
         id="path50"
         style="fill:#bbb0b5;fill-opacity:1;fill-rule:nonzero;stroke:none"
         d="m 1759.82,176.191 c 0,-51.722 -42.15,-93.6597 -94.13,-93.6597 -51.99,0 -94.12,41.9377 -94.12,93.6597 0,51.731 42.13,93.668 94.12,93.668 51.98,0 94.13,-41.937 94.13,-93.668 v 0" /><path
         id="path52"
         style="fill:#a1989d;fill-opacity:1;fill-rule:nonzero;stroke:none"
         d="m 1744.68,176.191 h 4.56 c 0,-22.941 -9.36,-43.769 -24.48,-58.812 -15.11,-15.039 -36.02,-24.3477 -59.07,-24.3477 -23.05,0 -43.97,9.3087 -59.08,24.3477 -15.11,15.043 -24.48,35.871 -24.47,58.812 -0.01,22.957 9.36,43.778 24.47,58.821 15.11,15.047 36.03,24.359 59.08,24.359 23.05,0 43.96,-9.312 59.07,-24.359 15.12,-15.043 24.48,-35.864 24.48,-58.821 h -4.56 -4.57 c 0,20.45 -8.31,38.95 -21.79,52.36 -13.47,13.41 -32.06,21.687 -52.63,21.687 -20.57,0 -39.15,-8.277 -52.64,-21.687 -13.47,-13.41 -21.79,-31.91 -21.79,-52.36 0,-20.441 8.32,-38.921 21.79,-52.351 13.49,-13.399 32.07,-21.692 52.64,-21.692 20.57,0 39.16,8.293 52.63,21.692 13.48,13.43 21.79,31.91 21.79,52.351 h 4.57 v 0" /><path
         id="path54"
         style="fill:#a1989d;fill-opacity:1;fill-rule:nonzero;stroke:none"
         d="m 1718.43,176.191 c 0,-28.98 -23.61,-52.48 -52.74,-52.48 -29.13,0 -52.75,23.5 -52.75,52.48 0,28.989 23.62,52.489 52.75,52.489 29.13,0 52.74,-23.5 52.74,-52.489 v 0" /><path
         id="path56"
         style="fill:#bbb0b5;fill-opacity:1;fill-rule:nonzero;stroke:none"
         d="m 1671.46,221.309 c -23.34,4.5 -44.88,-13.418 -48.22,-36.118 -0.33,-2.16 -0.39,-4.461 0,-6.621 v -0.05 c -0.83,-10.93 8.13,-19.469 18.99,-14.411 4.96,2.301 7.61,6.801 11.32,10.532 4.18,4.211 9.53,7.109 15.11,9.039 8.83,3.058 19.64,5.691 21.16,16.629 1.52,11.14 -8.32,19.062 -18.36,21 v 0" /><path
         id="path58"
         style="fill:#888488;fill-opacity:1;fill-rule:nonzero;stroke:none"
         d="m 1709.22,192.898 c -2.89,5.832 -12.08,4.122 -13.64,-1.777 -1.65,-6.191 -3.21,-12.441 -4.95,-18.601 -2.04,-7.301 -5.32,-10.649 -12.59,-13.122 -12.82,-4.347 -26.64,-4 -40.01,-3.839 -6.91,0.089 -9.27,-7.977 -5.28,-12.688 2.93,-3.461 6.61,-5.742 10.64,-7.211 16.54,-9.121 40.38,-5.039 54.53,6.391 15.12,12.238 19.9,33.508 11.3,50.847 v 0" /><path
         id="path60"
         style="fill:#322541;fill-opacity:1;fill-rule:nonzero;stroke:none"
         d="m 540.355,176.191 c 0,-97.3004 -79.277,-176.2027188 -177.062,-176.2027188 -97.797,0 -177.059,78.9023188 -177.059,176.2027188 0,97.321 79.262,176.204 177.059,176.204 97.785,0 177.062,-78.883 177.062,-176.204 v 0" /><path
         id="path62"
         style="fill:#bbb0b5;fill-opacity:1;fill-rule:nonzero;stroke:none"
         d="m 457.414,176.191 c 0,-51.722 -42.144,-93.6597 -94.121,-93.6597 -51.992,0 -94.125,41.9377 -94.125,93.6597 0,51.731 42.133,93.668 94.125,93.668 51.977,0 94.121,-41.937 94.121,-93.668 v 0" /><path
         id="path64"
         style="fill:#a1989d;fill-opacity:1;fill-rule:nonzero;stroke:none"
         d="m 442.273,176.191 h 4.563 c 0,-22.941 -9.359,-43.769 -24.477,-58.812 -15.101,-15.039 -36.015,-24.3477 -59.066,-24.3477 -23.063,0 -43.973,9.3087 -59.082,24.3477 -15.117,15.043 -24.481,35.871 -24.473,58.812 -0.008,22.957 9.356,43.778 24.473,58.821 15.109,15.047 36.019,24.359 59.082,24.359 23.051,0 43.965,-9.312 59.066,-24.359 15.118,-15.043 24.477,-35.864 24.477,-58.821 h -4.563 -4.554 c -0.012,20.45 -8.328,38.95 -21.797,52.36 -13.477,13.41 -32.059,21.687 -52.629,21.687 -20.586,0 -39.164,-8.277 -52.645,-21.687 -13.476,-13.41 -21.785,-31.91 -21.793,-52.36 0.008,-20.441 8.317,-38.929 21.793,-52.351 13.481,-13.399 32.059,-21.692 52.645,-21.692 20.57,0 39.152,8.293 52.629,21.692 13.469,13.43 21.785,31.91 21.797,52.351 h 4.554 v 0" /><path
         id="path66"
         style="fill:#a1989d;fill-opacity:1;fill-rule:nonzero;stroke:none"
         d="m 416.027,176.191 c 0,-28.98 -23.617,-52.48 -52.734,-52.48 -29.141,0 -52.758,23.5 -52.758,52.48 0,28.989 23.617,52.489 52.758,52.489 29.117,0 52.734,-23.5 52.734,-52.489 v 0" /><path
         id="path68"
         style="fill:#bbb0b5;fill-opacity:1;fill-rule:nonzero;stroke:none"
         d="m 369.051,221.309 c -23.34,4.5 -44.879,-13.418 -48.235,-36.118 -0.304,-2.16 -0.363,-4.461 0.024,-6.621 l -0.024,-0.05 c -0.812,-10.93 8.149,-19.469 19.004,-14.411 4.969,2.301 7.618,6.801 11.328,10.532 4.176,4.211 9.528,7.109 15.098,9.039 8.84,3.058 19.66,5.691 21.164,16.629 1.52,11.14 -8.305,19.062 -18.359,21 v 0" /><path
         id="path70"
         style="fill:#888488;fill-opacity:1;fill-rule:nonzero;stroke:none"
         d="m 406.82,192.898 c -2.894,5.832 -12.082,4.122 -13.644,-1.777 -1.649,-6.191 -3.211,-12.441 -4.942,-18.601 -2.039,-7.301 -5.332,-10.649 -12.593,-13.122 -12.825,-4.347 -26.649,-4 -40.012,-3.839 -6.914,0.089 -9.27,-7.977 -5.285,-12.688 2.933,-3.461 6.605,-5.742 10.644,-7.211 16.535,-9.121 40.383,-5.039 54.532,6.391 15.117,12.238 19.882,33.508 11.3,50.847 v 0" /><path
         id="path72"
         style="fill:#dbdae3;fill-opacity:1;fill-rule:nonzero;stroke:none"
         d="M 538.738,1212.21 H 2036.6 c 10.7,0 19.46,-8.18 19.46,-18.18 l 12.1,-70.69 H 538.738 v 88.87 0" /><path
         id="path74"
         style="fill:#c7c8cf;fill-opacity:1;fill-rule:nonzero;stroke:none"
         d="M 538.738,1212.21 H 2003.32 v 21.81 H 538.738 v -21.81 0" /><path
         id="path76"
         style="fill:#544169;fill-opacity:1;fill-rule:nonzero;stroke:none"
         d="m 70.1016,362.055 c 16.6914,0 30.2574,12.793 30.2574,28.496 v 141.785 c 0,15.703 -13.566,28.488 -30.2574,28.488 H 30.3203 V 362.055 h 39.7813 v 0" /><path
         id="path78"
         style="fill:#141322;fill-opacity:1;fill-rule:nonzero;stroke:none"
         d="m 33.4336,557.707 h 36.668 c 14.9336,0 27.1562,-11.414 27.1562,-25.371 V 390.551 c 0,-13.965 -12.2226,-25.383 -27.1562,-25.383 h -36.668 v 192.539 m -6.2148,6.223 v -6.223 -192.539 -6.219 h 6.2148 36.668 c 18.3906,0 33.3714,14.18 33.3714,31.602 v 141.785 c 0,17.422 -14.9808,31.594 -33.3714,31.594 h -36.668 -6.2148 v 0" /><path
         id="path80"
         style="fill:#f57a41;fill-opacity:1;fill-rule:nonzero;stroke:none"
         d="m 33.4336,420.285 h 30.8359 c 4.6524,0 8.461,-3.555 8.461,-7.898 v -22.141 c 0,-4.355 -3.8086,-7.918 -8.461,-7.918 H 33.4336 v 37.957 0" /><path
         id="path82"
         style="fill:#decde3;fill-opacity:1;fill-rule:nonzero;stroke:none"
         d="m 33.4336,538.93 h 30.8359 c 4.6524,0 8.461,-3.567 8.461,-7.91 v -90.95 c 0,-4.343 -3.8086,-7.91 -8.461,-7.91 H 33.4336 v 106.77 0" /><path
         id="path84"
         style="fill:#a6caed;fill-opacity:1;fill-rule:nonzero;stroke:none"
         d="m 466.039,721.215 h 273.93 L 491.813,856.359 444.07,762.039 c -3.23,-4.633 -4.691,-9.711 -4.683,-14.664 0.011,-13.555 10.988,-26.16 26.652,-26.16" /><path
         id="path86"
         style="fill:#a6caed;fill-opacity:1;fill-rule:nonzero;stroke:none"
         d="m 774.059,903.625 -0.227,4.891 -200.363,109.124 0.855,1.7 c 4.949,7.12 13.188,11.37 21.969,11.37 h 146.562 c 14.696,0 23.676,-7.58 26.61,-26.1 l 4.594,-100.985 m 2.66,-58.25 -227.684,124 -0.957,-1.891 15,29.633 211.973,-115.437 1.656,-36.301 m 4.426,-97.141 -269.692,146.875 13.418,26.528 254.692,-138.703 1.57,-34.692" /><path
         id="path88"
         style="fill:#a6caed;fill-opacity:1;fill-rule:nonzero;stroke:none"
         d="m 318.504,721.215 h 5.008 l -3.77,2.051 41.086,68.683 21.875,-11.906 -31.148,-52.871 63.16,107.207 -8.414,-14.281 -21.598,11.757 17.672,29.532 21.387,-11.653 94.804,160.926 c 1.711,2.45 2.497,5.13 2.497,7.74 0.007,7.15 -5.778,13.83 -14.051,13.83 h -2.438 L 318.504,721.215" /><path
         id="path90"
         style="fill:#a6caed;fill-opacity:1;fill-rule:nonzero;stroke:none"
         d="m 1281.16,754.082 c 0.04,0 0.08,0 0.11,0 -0.03,0 -0.07,0 -0.11,0" /><path
         id="path92"
         style="fill:#a6caed;fill-opacity:1;fill-rule:nonzero;stroke:none"
         d="m 1281.3,754.082 c 0.03,0 0.05,0 0.08,0 -0.03,0 -0.05,0 -0.08,0" /><path
         id="path94"
         style="fill:#a6caed;fill-opacity:1;fill-rule:nonzero;stroke:none"
         d="m 1281.41,754.082 c 0.03,0 0.06,0 0.08,0 -0.02,0 -0.05,0 -0.08,0" /><path
         id="path96"
         style="fill:#a6caed;fill-opacity:1;fill-rule:nonzero;stroke:none"
         d="m 1015.06,977.094 c -0.01,0.027 -0.02,0.058 -0.02,0.086 0,-0.028 0.01,-0.059 0.02,-0.086" /><path
         id="path98"
         style="fill:#a6caed;fill-opacity:1;fill-rule:nonzero;stroke:none"
         d="m 1015.02,977.254 c 0,0.004 0,0.004 0,0.012 0,-0.008 0,-0.008 0,-0.012" /><path
         id="path100"
         style="fill:#a6caed;fill-opacity:1;fill-rule:nonzero;stroke:none"
         d="m 1014.39,981.957 v 0 0" /><path
         id="path102"
         style="fill:#a6caed;fill-opacity:1;fill-rule:nonzero;stroke:none"
         d="m 1014.39,982.031 c 0,0.012 0,0.024 0,0.032 0,-0.008 0,-0.02 0,-0.032" /><path
         id="path104"
         style="fill:#f2eef1;fill-opacity:1;fill-rule:nonzero;stroke:none"
         d="m 775.063,881.672 -1.004,21.953 0.992,-21.945 0.012,-0.008" /><path
         id="path106"
         style="fill:#f2eef1;fill-opacity:1;fill-rule:nonzero;stroke:none"
         d="m 563.078,997.117 10.391,20.523 v 0 l -10.391,-20.523" /><path
         id="path108"
         style="fill:#c5d9f2;fill-opacity:1;fill-rule:nonzero;stroke:none"
         d="m 775.051,881.68 -0.992,21.945 -0.227,4.891 L 573.469,1017.64 563.078,997.117 775.051,881.68" /><path
         id="path110"
         style="fill:#f2eef1;fill-opacity:1;fill-rule:nonzero;stroke:none"
         d="m 779.551,782.934 -2.832,62.441 2.832,-62.437 v -0.004" /><path
         id="path112"
         style="fill:#f2eef1;fill-opacity:1;fill-rule:nonzero;stroke:none"
         d="m 524.871,921.633 23.207,45.851 -23.219,-45.843" /><path
         id="path114"
         style="fill:#c5d9f2;fill-opacity:1;fill-rule:nonzero;stroke:none"
         d="m 779.551,782.938 -2.844,62.441 -227.672,123.996 -0.957,-1.891 -23.207,-45.851 254.68,-138.699" /><path
         id="path116"
         style="fill:#f2eef1;fill-opacity:1;fill-rule:nonzero;stroke:none"
         d="m 491.813,856.355 19.628,38.758 h -0.007 l -19.621,-38.754" /><path
         id="path118"
         style="fill:#c5d9f2;fill-opacity:1;fill-rule:nonzero;stroke:none"
         d="m 739.969,721.215 h 14.59 c 14.699,0 26.613,11.687 26.613,26.098 v 0 l -0.051,0.933 -269.687,146.867 -19.621,-38.758 248.156,-135.14" /><path
         id="path120"
         style="fill:#c5d9f2;fill-opacity:1;fill-rule:nonzero;stroke:none"
         d="m 323.512,721.215 h 16.5 c 4.617,0 8.941,2.226 11.543,5.957 v 0 l 31.148,52.871 -21.875,11.906 -41.086,-68.683 3.77,-2.051" /><path
         id="path122"
         style="fill:#f2eef1;fill-opacity:1;fill-rule:nonzero;stroke:none"
         d="m 414.715,834.379 9.047,15.355 v 0 l -9.047,-15.355" /><path
         id="path124"
         style="fill:#c5d9f2;fill-opacity:1;fill-rule:nonzero;stroke:none"
         d="m 406.301,820.098 8.414,14.281 9.047,15.355 -21.387,11.653 -17.672,-29.532 21.598,-11.757" /><path
         id="path126"
         style="fill:#f2eef1;fill-opacity:1;fill-rule:nonzero;stroke:none"
         d="m 1014.39,982.063 c 0,0.019 0,0.035 0,0.054 0,-0.019 0,-0.035 0,-0.054 m 0,-0.106 c 0,0.023 0,0.047 0,0.074 0,-0.027 0,-0.051 0,-0.074 m 0.63,-4.691 c -0.39,1.574 -0.6,3.14 -0.63,4.691 0.03,-1.551 0.24,-3.117 0.63,-4.691 m 0.02,-0.086 c -0.01,0.027 -0.02,0.05 -0.02,0.074 0,-0.024 0.01,-0.047 0.02,-0.074 m 10.04,-39.348 -10.02,39.262 v 0 0 l 10.02,-39.262 M 1303.57,786.16 v 0 l -3.74,14.66 3.74,-14.66" /><path
         id="path128"
         style="fill:#f2eef1;fill-opacity:1;fill-rule:nonzero;stroke:none"
         d="m 1275.03,897.992 -4.92,19.266 4.92,-19.266 v 0" /><path
         id="path130"
         style="fill:#f2eef1;fill-opacity:1;fill-rule:nonzero;stroke:none"
         d="m 1281.49,754.082 c 0.01,0 0.02,0 0.02,0 0,0 -0.01,0 -0.02,0 m -0.11,0 c 0.01,0 0.02,0 0.03,0 -0.01,0 -0.02,0 -0.03,0 m -0.11,0 c 0.01,0 0.02,0 0.03,0 -0.01,0 -0.02,0 -0.03,0" /><path
         id="path132"
         style="fill:#141322;fill-opacity:1;fill-rule:nonzero;stroke:none"
         d="m 596.293,1030.71 h 146.562 c 14.696,0 23.676,-7.58 26.61,-26.1 L 781.16,747.313 c 0,-14.411 -11.902,-26.098 -26.601,-26.098 h -288.52 c -21.394,0 -34.027,23.5 -21.969,40.824 l 130.254,257.301 c 4.949,7.12 13.188,11.37 21.969,11.37 m 0,9.59 c -11.934,0 -23.102,-5.78 -29.844,-15.48 -0.261,-0.37 -0.488,-0.75 -0.687,-1.16 L 435.789,766.934 c -7.301,-10.907 -8.035,-24.297 -1.949,-35.954 6.246,-11.949 18.574,-19.371 32.199,-19.371 h 288.52 c 19.968,0 36.195,16.016 36.195,35.704 0,0.148 0,0.292 -0.008,0.441 l -11.687,257.286 c -0.016,0.36 -0.055,0.71 -0.106,1.07 -4.476,28.26 -22.101,34.19 -36.098,34.19 H 596.293 v 0" /><path
         id="path134"
         style="fill:#141322;fill-opacity:1;fill-rule:nonzero;stroke:none"
         d="m 504.574,1032.23 h 2.438 c 11.297,0 17.957,-12.44 11.554,-21.57 L 351.555,727.172 c -2.602,-3.731 -6.926,-5.957 -11.543,-5.957 h -21.508 l 186.07,311.015 m -5.449,9.59 -2.785,-4.67 -186.074,-311.009 -8.692,-14.532 h 16.93 21.508 c 7.746,0 15.004,3.766 19.418,10.059 l 0.211,0.309 0.191,0.328 166.824,283.205 c 4.778,7.04 5.293,16.06 1.364,23.62 -4.067,7.83 -12.11,12.69 -21.008,12.69 h -2.438 -5.449 v 0" /><path
         id="path136"
         style="fill:#c5d9f2;fill-opacity:1;fill-rule:nonzero;stroke:none"
         d="m 1325.39,893.039 -6.03,21.805 -4.18,20.414 -144.45,68.412 h -130.28 l 286.33,-119.443" /><path
         id="path138"
         style="fill:#a6caed;fill-opacity:1;fill-rule:nonzero;stroke:none"
         d="m 992.465,752.988 262.875,-2.004 -286.625,84.219 11.883,54.652 359.192,-135.417 c -3.61,-2.122 -7.86,-3.391 -12.51,-3.45 13.49,0.172 23.84,10.528 23.83,22.535 0,1.735 -0.22,3.497 -0.68,5.27 l -1.08,4.277 -378.787,146.078 -1.59,-158.828 c 2.597,-10.164 12.312,-17.332 23.492,-17.332" /><path
         id="path140"
         style="fill:#a6caed;fill-opacity:1;fill-rule:nonzero;stroke:none"
         d="m 1345.61,797.727 -24.81,97.168 -278.49,106.915 h 130.27 l 140.46,-76.497 2.84,-11.149 -17.94,70.313 c -2.6,10.16 -12.31,17.333 -23.49,17.333 h -272.31 c -13.656,0 -24.179,-10.435 -24.167,-22.544 0,-0.078 0,-0.161 0,-0.243 -0.086,6.961 -2.301,12.524 -4.387,-1.707 l 295.534,-121.507 76.49,-58.082" /><path
         id="path142"
         style="fill:#c5d9f2;fill-opacity:1;fill-rule:nonzero;stroke:none"
         d="m 1349.35,783.07 -10.04,49.2 -70.19,23.539 -295.534,121.507 c -7.422,-43.293 4.301,8.668 4.387,1.707 0,-0.015 0,-0.035 0,-0.05 0,-0.008 0,-0.024 0,-0.035 0,-0.024 0,-0.047 0.004,-0.079 v 0 c 0.031,-1.543 0.234,-3.113 0.621,-4.691 0,0 0.004,0 0.004,-0.004 0.003,-0.023 0.007,-0.051 0.015,-0.074 0.008,-0.027 0.016,-0.059 0.024,-0.086 v 0 L 970.57,929.148 1349.35,783.07" /><path
         id="path144"
         style="fill:#c5d9f2;fill-opacity:1;fill-rule:nonzero;stroke:none"
         d="m 1252.4,747.836 h 71.6 l 1.34,-3.297 c 0.03,0 3.27,0.977 3.3,0.977 0.01,0 -1.87,0.464 -1.86,0.464 0.03,0 -0.94,2.227 -0.92,2.227 0.01,0 1.21,0 1.22,0 0.03,0 4.78,-0.371 4.81,-0.371 0,0 -0.01,3.246 0,3.246 4.64,0.059 8.92,2.984 12.52,5.102 l -372.68,136.39 -4.871,-55.515 285.691,-86.442" /><path
         id="path146"
         style="fill:#141322;fill-opacity:1;fill-rule:nonzero;stroke:none"
         d="m 1002.14,1001.81 h 272.31 c 11.18,0 20.89,-7.173 23.49,-17.333 l 52.49,-205.684 c 3.64,-14.184 -7.88,-27.809 -23.48,-27.809 l -334.485,2.004 c -11.18,0 -20.895,7.168 -23.492,17.332 l 9.668,203.684 c 1.132,15.223 7.894,27.806 23.499,27.806 m 0,9.6 c -10.816,0 -20.702,-4.74 -27.14,-13.031 -5.973,-7.695 -4.973,-14.254 -5.66,-26.75 l -9.672,-203.691 c 3.699,-14.454 17.18,-24.551 32.797,-24.551 l 334.485,-2 c 10.81,0 20.7,4.746 27.13,13.035 5.97,7.687 8.04,17.437 5.66,26.742 l -52.5,205.691 c -3.68,14.455 -17.18,24.555 -32.79,24.555 h -272.31 v 0" /><path
         id="path148"
         style="fill:#adafb8;fill-opacity:1;fill-rule:nonzero;stroke:none"
         d="m 568.289,1057.05 -192.855,-359.628 -1.493,0.801 192.856,359.627" /><path
         id="path150"
         style="fill:#adafb8;fill-opacity:1;fill-rule:nonzero;stroke:none"
         d="m 856.41,254.23 v 390.977 l -32.48,410.443 4.785,0.38 32.5,-410.635 V 254.23 h -4.805 v 0" /><path
         id="path152"
         style="fill:#adafb8;fill-opacity:1;fill-rule:nonzero;stroke:none"
         d="m 372.293,369.594 h 4.78906 V 697.821 H 372.293 Z" /><path
         id="path154"
         style="fill:#adafb8;fill-opacity:1;fill-rule:nonzero;stroke:none"
         d="m 1420.08,254.23 h 4.8125 v 803.219 h -4.8125 z" /><g
         transform="scale(10)"
         id="g156"><text
           id="text162"
           style="font-variant:normal;font-size:14.92523956px;font-family:FranklinGothic;-inkscape-font-specification:FranklinGothic-DemiCond;writing-mode:lr-tb;fill:#ee2849;fill-opacity:1;fill-rule:nonzero;stroke:none"
           transform="matrix(1,0,0,-0.80400717,158.349,87.6391)"><tspan
             id="tspan158"
             y="0"
             x="0 7.7978172 15.428155 26.614614">SAMU</tspan><tspan
             id="tspan160"
             y="13.847638"
             x="7.5472336 15.046225 22.676561">192</tspan></text>
</g></g></g></svg>