<?xml version="1.0" encoding="UTF-8" standalone="no"?>
<svg
   xmlns:dc="http://purl.org/dc/elements/1.1/"
   xmlns:cc="http://creativecommons.org/ns#"
   xmlns:rdf="http://www.w3.org/1999/02/22-rdf-syntax-ns#"
   xmlns:svg="http://www.w3.org/2000/svg"
   xmlns="http://www.w3.org/2000/svg"
   viewBox="0 0 390.28 412.70667"
   height="412.70667"
   width="390.28"
   xml:space="preserve"
   id="svg2"
   version="1.1"><metadata
     id="metadata8"><rdf:RDF><cc:Work
         rdf:about=""><dc:format>image/svg+xml</dc:format><dc:type
           rdf:resource="http://purl.org/dc/dcmitype/StillImage" /></cc:Work></rdf:RDF></metadata><defs
     id="defs6" /><g
     transform="matrix(1.3333333,0,0,-1.3333333,0,412.70667)"
     id="g10"><g
       transform="scale(0.1)"
       id="g12"><path
         id="path14"
         style="fill:#f36749;fill-opacity:1;fill-rule:nonzero;stroke:none"
         d="m 1876.42,2357.89 c 122.16,-21.14 361.5,-149.36 452.25,-211.16 -45.91,-51.58 -78.92,-117.71 -103.32,-181.3 0,0 -270.81,26.5 -512.38,154.31 -63.61,33.65 -120.2,308.78 163.45,238.15 v 0" /><path
         id="path16"
         style="fill:#f36749;fill-opacity:1;fill-rule:nonzero;stroke:none"
         d="m 2617.08,1692.42 c -117.64,60.23 -281.78,196.72 -402.15,278.01 -52.1,57.18 79.91,181.25 108.2,180.25 151.92,-88.5 266.95,-235.83 356.4,-388.05 l -62.45,-70.21 v 0" /><path
         id="path18"
         style="fill:#c41b50;fill-opacity:1;fill-rule:nonzero;stroke:none"
         d="m 1619.5,2253.56 c 6.79,54.92 56.11,210.45 421.12,90.83 -10.08,-128.56 -107.86,-330.97 -107.86,-330.97 0,0 -342.69,2.29 -313.26,240.14 v 0" /><path
         id="path20"
         style="fill:#f36749;fill-opacity:1;fill-rule:nonzero;stroke:none"
         d="m 2798.48,1725.86 c -40.03,24.68 -108.82,41.86 -132.06,45.06 l -60.54,-69.33 c 17.74,-92.81 98.64,-161.32 109.51,-166.67 28.27,-13.88 40.69,-22.16 44.48,-19.13 3.8,3.03 16.91,19.88 -19.43,47.83 -79.54,61.16 8.98,58.3 117.11,-46.62 22.24,-21.58 71.27,12.47 69.46,41.39 -3.31,53.29 -14.06,96.88 -128.53,167.47 v 0" /><path
         id="path22"
         style="fill:#f36749;fill-opacity:1;fill-rule:nonzero;stroke:none"
         d="m 1362.04,1424.69 c 0,0 -42.98,-229.02 -141.69,-406.83 -62.5,-114.981 -117.39,-234.391 -157.92,-358.84 l -156.442,55.769 c 45.106,141.18 26.43,244.18 90.567,458.771 35.385,118.21 355.425,264.42 365.165,251.2 l 0.32,-0.07 v 0" /><path
         id="path24"
         style="fill:#f36749;fill-opacity:1;fill-rule:nonzero;stroke:none"
         d="m 1967.76,1366.41 c 0,0 -390.35,-464.199 -463.65,-572.621 l -117.75,115.223 c 82.33,123.228 92.82,227.388 213.72,415.928 66.65,103.84 99.38,117.99 195.77,132.51 l 171.91,-91.04 v 0 0" /><path
         id="path26"
         style="fill:#262a59;fill-opacity:1;fill-rule:nonzero;stroke:none"
         d="m 1671.87,101.789 c 0.95,-45.5585 38.65,-81.7304 84.21,-80.7773 45.57,0.9492 81.74,38.6367 80.79,84.2073 -0.95,45.562 -38.65,81.73 -84.22,80.781 -45.55,-0.949 -81.72,-38.648 -80.78,-84.211 v 0" /><path
         id="path28"
         style="fill:#262a59;fill-opacity:1;fill-rule:nonzero;stroke:none"
         d="M 826.242,84.2305 C 827.188,38.6719 791.023,0.96875 745.457,0.0195313 699.898,-0.929688 662.195,35.25 661.25,80.8008 c -0.945,45.5702 35.223,83.2692 80.781,84.2192 45.563,0.941 83.27,-35.231 84.211,-80.7895 v 0" /><path
         id="path30"
         style="fill:#262a59;fill-opacity:1;fill-rule:nonzero;stroke:none"
         d="m 191.055,507.551 c 32.347,139.211 168.383,160.258 297.836,121.801 30.507,-8.981 133.668,-39.77 207.183,-36.403 28.762,0.852 107.262,2.789 254.344,5.391 246.012,4.269 757.882,13.219 834.152,24.922 43.43,5.758 85.49,19.258 124.17,39.859 -2.96,-1.742 -4.42,-2.859 -4.42,-2.859 0,0 230.36,131.937 354.99,-39.68 C 2394.55,433.18 2131.86,286.398 2131.86,286.398 2094.12,267.922 2046,219.07 1850.88,191.422 1769.82,179.93 1486.52,171.879 957.586,162.5 c -116.883,-2.129 -217.57,-3.84 -242.164,-4.891 -171.871,-7.82 -352.117,54.172 -372.234,60.86 -56.227,16.269 -191.25,121.871 -152.133,289.082 v 0" /><path
         id="path32"
         style="fill:#ed1d58;fill-opacity:1;fill-rule:nonzero;stroke:none"
         d="m 190.074,554.84 c 32.348,139.199 168.387,160.25 297.836,121.789 30.504,-8.988 133.668,-39.77 207.18,-36.41 28.758,0.863 107.262,2.801 254.34,5.402 246.02,4.27 757.89,13.219 834.15,24.91 43.44,5.758 85.5,19.27 124.17,39.867 -2.96,-1.738 -4.4,-2.847 -4.4,-2.847 0,0 230.36,131.929 354.98,-39.699 C 2393.57,480.461 2130.88,333.68 2130.88,333.68 2093.14,315.199 2045.01,266.352 1849.9,238.699 1768.84,227.211 1485.54,219.16 956.602,209.781 839.723,207.648 739.035,205.941 714.441,204.891 542.57,197.07 362.32,259.059 342.199,265.75 285.977,282.012 150.953,387.621 190.074,554.84 v 0" /><path
         id="path34"
         style="fill:#2c4b9f;fill-opacity:1;fill-rule:nonzero;stroke:none"
         d="m 1476.93,1860.52 c 0,0 539.12,-355.54 494.38,-516.36 l -463.25,-131.07 -269.85,264.27 c 0,0 -652.815,363.78 -558.73,461.11 l 797.45,-77.95 v 0" /><path
         id="path36"
         style="fill:#4667ba;fill-opacity:1;fill-rule:nonzero;stroke:none"
         d="m 1186.21,1752.68 c 301.89,-262.67 136.52,-464.79 95.61,-659.9 l -437.086,37.69 -8.777,315.18 c -181.344,80.26 -370.664,227.32 -179.277,504.29 0.054,0.13 363.51,-21.63 529.53,-197.26 v 0" /><path
         id="path38"
         style="fill:#ed1d58;fill-opacity:1;fill-rule:nonzero;stroke:none"
         d="m 1498.69,1845.55 243.71,232.4 7.88,302.32 c 0,0 -584.66,101.11 -832.585,39.86 -253.816,-63.02 -382.476,-657 -382.476,-657 0,0 283.828,199.71 548.061,69.01 197.49,-97.93 302.76,-43.99 415.41,13.41 v 0" /><path
         id="path40"
         style="fill:#e0543b;fill-opacity:1;fill-rule:nonzero;stroke:none"
         d="m 1623.76,2287.67 -39.86,-95.8 c 0,0 -136.82,-165.21 -302.13,30.17 -17.4,53.52 0.48,113.18 0.48,113.18 l 341.51,-47.55 v 0" /><path
         id="path42"
         style="fill:#f36749;fill-opacity:1;fill-rule:nonzero;stroke:none"
         d="M 826.336,2401.87 C 703.887,2382.45 462.762,2257.61 371.148,2197.1 c 45.176,-52.22 77.254,-118.82 100.766,-182.74 0,0 271.149,22.68 514.496,147.07 64.08,32.76 124.53,307.06 -160.074,240.44 v 0" /><path
         id="path44"
         style="fill:#f36749;fill-opacity:1;fill-rule:nonzero;stroke:none"
         d="m 254.98,1670.33 c 90.36,96.44 198.704,280.37 284.524,397.57 29.711,71.42 -136.473,143.57 -162.758,133.07 C 263.672,2066.33 205.219,1888.79 172.473,1715.3 l 82.507,-44.97 v 0" /><path
         id="path46"
         style="fill:#c41b50;fill-opacity:1;fill-rule:nonzero;stroke:none"
         d="m 1081.76,2293.93 c -6.02,55 -53.15,211.22 -419.807,96.75 8.274,-128.69 103.203,-332.46 103.203,-332.46 0,0 342.684,-2.53 316.604,235.71 v 0" /><path
         id="path48"
         style="fill:#f36749;fill-opacity:1;fill-rule:nonzero;stroke:none"
         d="m 72.9414,1640.49 c 29.3356,36.76 88.2696,76.18 109.0666,87.04 l 80.418,-44.79 c 14.668,-93.34 -38.317,-185.16 -46.75,-193.87 -21.91,-22.62 -30.801,-34.6 -35.395,-33.04 -4.597,1.57 -22.629,12.99 2.133,51.58 54.18,84.44 -28.172,51.83 -94.4726,-83.45 -13.6367,-27.83 -71.2891,-12.36 -79.36718,15.48 -14.88672,51.27 -19.50002,95.93 64.36718,201.05 v 0" /><path
         id="path50"
         style="fill:#ffffff;fill-opacity:1;fill-rule:nonzero;stroke:none"
         d="m 1544.47,846.141 76.74,97.558 -165.17,96.211 -74.93,-140.191 39.73,-86.219 123.63,32.641 v 0" /><path
         id="path52"
         style="fill:#ffffff;fill-opacity:1;fill-rule:nonzero;stroke:none"
         d="m 1081.46,709.082 58.76,143.457 c 0,0 -123.68,84.77 -197.966,45.352 -6.965,-37.231 -26.129,-146.45 -26.129,-146.45 l 165.335,-42.359 v 0" /><path
         id="path54"
         style="fill:#262a59;fill-opacity:1;fill-rule:nonzero;stroke:none"
         d="m 1451.68,847.59 c 56.67,27.93 96.34,0.012 96.34,0.012 -16.44,-154.903 203.68,-255.141 83.33,-373.43 -254.07,239.199 -361.74,336.359 -361.74,336.359 26.7,28.051 94.33,90.649 124.71,111.52 l 11.12,-14.75 46.24,-59.711 v 0" /><path
         id="path56"
         style="fill:#ffffff;fill-opacity:1;fill-rule:nonzero;stroke:none"
         d="m 1585.92,454.969 -332.04,308.73 c -8.24,7.672 -8.71,20.563 -1.04,28.801 l 19.93,21.441 361.88,-336.492 -19.93,-21.429 c -7.66,-8.25 -20.56,-8.719 -28.8,-1.051 v 0" /><path
         id="path58"
         style="fill:#262a59;fill-opacity:1;fill-rule:nonzero;stroke:none"
         d="m 1070.7,508.809 c 0,0 6.89,107.98 8.84,121.492 2.23,15.359 5.98,52.187 10.31,70.258 1.06,4.441 -35.1,47.711 -69.91,59.402 -47.167,15.84 -99.342,3.039 -101.952,-1.832 -16.718,-31.16 -30.004,-69.949 -49.879,-99.09 -14.785,-21.668 -51.832,-71.301 -51.832,-71.301 L 1070.7,508.809 v 0" /><path
         id="path60"
         style="fill:#ffffff;fill-opacity:1;fill-rule:nonzero;stroke:none"
         d="m 1073.29,516.512 c -12.83,-17.571 -81.474,30.879 -137.169,49.66 -46.758,15.769 -113.367,18.09 -117.859,27.457 -18.657,-16.699 -23.485,-62.738 -23.485,-62.738 0,0 47.871,-18.981 107.161,-36.192 59.281,-17.211 125.552,-43.738 153.542,-44.777 25.12,21.418 17.81,66.59 17.81,66.59 v 0" /><path
         id="path62"
         style="fill:#f36749;fill-opacity:1;fill-rule:nonzero;stroke:none"
         d="m 1779.61,2441.39 c -115.05,-177.22 -350.62,-248.02 -489.82,-157.67 -139.19,90.36 -129.31,307.66 -14.26,484.9 115.05,177.22 321.15,247.65 460.35,157.29 139.19,-90.36 158.77,-307.28 43.73,-484.52 v 0" /><path
         id="path64"
         style="fill:#e0543b;fill-opacity:1;fill-rule:nonzero;stroke:none"
         d="m 1398.34,2606.49 c -44.24,-22.61 -99.3,-49.56 -99.3,-49.56 0,0 -9.6,-46.05 40.37,-76.72 -16.02,21.56 -28.49,48.5 -2.81,71.68 25.67,23.18 61.74,54.6 61.74,54.6 v 0" /><path
         id="path66"
         style="fill:#040606;fill-opacity:1;fill-rule:nonzero;stroke:none"
         d="m 1817.46,2459.57 c -65.11,-52.74 -143.4,170.99 -135.92,258.71 -110.63,-16.29 -165.9,180.76 -309.79,75.75 -17.3,60.9 48.71,100.26 48.71,100.26 0,0 -113.29,-24.65 -168.82,-74.24 14.31,309.63 479.68,359.31 586.76,142.56 228.73,-92.53 147.62,-366.51 -20.94,-503.04 v 0" /><path
         id="path68"
         style="fill:#f36749;fill-opacity:1;fill-rule:nonzero;stroke:none"
         d="m 1748.13,2479.68 c -47.21,-15.47 -75.23,-59.33 -62.57,-97.97 12.67,-38.64 61.21,-57.42 108.42,-41.95 47.22,15.47 75.24,59.34 62.58,97.98 -12.67,38.64 -61.21,57.42 -108.43,41.94 v 0" /><path
         id="path70"
         style="fill:#e0543b;fill-opacity:1;fill-rule:nonzero;stroke:none"
         d="m 1734,2374.23 c -1.12,1.17 -2,2.63 -2.52,4.29 -7.4,23.95 -1.14,45.61 16.77,57.96 18.34,12.65 43.84,12.29 60.63,-0.84 4.73,-3.71 5.57,-10.53 1.87,-15.25 -3.69,-4.73 -10.52,-5.56 -15.25,-1.87 -9.2,7.19 -24.54,7.22 -34.91,0.07 -9.98,-6.88 -12.94,-18.82 -8.35,-33.65 1.77,-5.72 -1.44,-11.81 -7.17,-13.58 -4.06,-1.26 -8.31,-0.01 -11.07,2.87 v 0" /></g></g></svg>