<?xml version="1.0" encoding="UTF-8" standalone="no"?>
<svg
   xmlns:dc="http://purl.org/dc/elements/1.1/"
   xmlns:cc="http://creativecommons.org/ns#"
   xmlns:rdf="http://www.w3.org/1999/02/22-rdf-syntax-ns#"
   xmlns:svg="http://www.w3.org/2000/svg"
   xmlns="http://www.w3.org/2000/svg"
   viewBox="0 0 390.28 412.70667"
   height="412.70667"
   width="390.28"
   xml:space="preserve"
   id="svg2"
   version="1.1"><metadata
     id="metadata8"><rdf:RDF><cc:Work
         rdf:about=""><dc:format>image/svg+xml</dc:format><dc:type
           rdf:resource="http://purl.org/dc/dcmitype/StillImage" /></cc:Work></rdf:RDF></metadata><defs
     id="defs6" /><g
     transform="matrix(1.3333333,0,0,-1.3333333,0,412.70667)"
     id="g10"><g
       transform="scale(0.1)"
       id="g12"><path
         id="path14"
         style="fill:#f36749;fill-opacity:1;fill-rule:nonzero;stroke:none"
         d="m 1050.64,2357.89 c -122.16,-21.14 -361.499,-149.36 -452.245,-211.15 45.902,-51.58 78.914,-117.72 103.32,-181.31 0,0 270.805,26.5 512.375,154.31 63.61,33.65 120.2,308.78 -163.45,238.15 v 0" /><path
         id="path16"
         style="fill:#f36749;fill-opacity:1;fill-rule:nonzero;stroke:none"
         d="m 309.984,1692.42 c 117.641,60.23 281.774,196.72 402.149,278.01 52.094,57.19 -79.918,181.25 -108.203,180.25 -151.918,-88.5 -266.942,-235.83 -356.403,-388.05 l 62.457,-70.21 v 0" /><path
         id="path18"
         style="fill:#c41b50;fill-opacity:1;fill-rule:nonzero;stroke:none"
         d="m 1307.56,2253.56 c -6.79,54.92 -56.11,210.45 -421.126,90.83 10.089,-128.55 107.871,-330.97 107.871,-330.97 0,0 342.695,2.29 313.255,240.14 v 0" /><path
         id="path20"
         style="fill:#f36749;fill-opacity:1;fill-rule:nonzero;stroke:none"
         d="m 128.582,1725.86 c 40.027,24.68 108.82,41.86 132.063,45.06 l 60.543,-69.33 c -17.747,-92.81 -98.645,-161.32 -109.52,-166.67 -28.266,-13.88 -40.684,-22.16 -44.477,-19.13 -3.804,3.03 -16.91,19.88 19.434,47.83 79.535,61.15 -8.988,58.3 -117.1133,-46.62 -22.2383,-21.58 -71.26951,12.47 -69.464825,41.39 3.316405,53.29 14.070325,96.88 128.535125,167.47 v 0" /><path
         id="path22"
         style="fill:#f36749;fill-opacity:1;fill-rule:nonzero;stroke:none"
         d="m 1565.02,1424.69 c 0,0 42.98,-229.02 141.69,-406.82 62.5,-114.991 117.39,-234.409 157.92,-358.85 l 156.44,55.769 c -45.1,141.18 -26.42,244.18 -90.56,458.771 -35.38,118.21 -355.43,264.42 -365.16,251.2 l -0.33,-0.07 v 0" /><path
         id="path24"
         style="fill:#f36749;fill-opacity:1;fill-rule:nonzero;stroke:none"
         d="m 959.305,1366.41 c 0,0 390.345,-464.199 463.645,-572.621 l 117.75,115.223 c -82.33,123.228 -92.82,227.388 -213.72,415.928 -66.65,103.84 -99.38,117.99 -195.77,132.51 l -171.905,-91.04 v 0 0" /><path
         id="path26"
         style="fill:#262a59;fill-opacity:1;fill-rule:nonzero;stroke:none"
         d="m 1255.19,101.789 c -0.95,-45.5702 -38.65,-81.7304 -84.21,-80.7773 -45.57,0.9492 -81.73,38.6367 -80.79,84.2073 0.95,45.57 38.65,81.73 84.22,80.781 45.56,-0.949 81.72,-38.648 80.78,-84.211 v 0" /><path
         id="path28"
         style="fill:#262a59;fill-opacity:1;fill-rule:nonzero;stroke:none"
         d="M 2100.82,84.2305 C 2099.87,38.6797 2136.03,0.96875 2181.6,0.0117188 2227.16,-0.921875 2264.86,35.25 2265.81,80.8008 c 0.95,45.5702 -35.22,83.2692 -80.78,84.2112 -45.56,0.949 -83.27,-35.211 -84.21,-80.7815 v 0" /><path
         id="path30"
         style="fill:#262a59;fill-opacity:1;fill-rule:nonzero;stroke:none"
         d="m 2736.01,507.551 c -32.35,139.211 -168.38,160.258 -297.84,121.801 -30.5,-8.981 -133.67,-39.782 -207.18,-36.411 -28.76,0.86 -107.27,2.797 -254.34,5.399 -246.02,4.269 -757.89,13.219 -834.16,24.93 -43.43,5.75 -85.49,19.25 -124.17,39.851 2.96,-1.742 4.42,-2.851 4.42,-2.851 0,0 -230.361,131.929 -354.99,-39.688 -135.242,-187.391 127.449,-334.184 127.449,-334.184 37.746,-18.476 85.864,-67.32 280.981,-94.976 81.06,-11.492 364.37,-19.543 893.29,-28.922 116.89,-2.129 217.57,-3.828 242.17,-4.891 171.87,-7.808 352.12,54.172 372.24,60.86 56.23,16.261 191.25,121.883 152.13,289.082 v 0" /><path
         id="path32"
         style="fill:#ed1d58;fill-opacity:1;fill-rule:nonzero;stroke:none"
         d="m 2736.98,554.84 c -32.34,139.199 -168.38,160.25 -297.83,121.789 -30.5,-8.988 -133.66,-39.77 -207.18,-36.41 -28.76,0.863 -107.26,2.793 -254.34,5.402 -246.02,4.277 -757.89,13.211 -834.15,24.91 -43.44,5.758 -85.5,19.27 -124.17,39.86 2.96,-1.731 4.41,-2.852 4.41,-2.852 0,0 -230.365,131.941 -354.99,-39.687 -135.242,-187.391 127.45,-334.161 127.45,-334.161 37.742,-18.492 85.867,-67.339 280.99,-94.992 81.05,-11.488 364.35,-19.539 893.29,-28.918 116.88,-2.133 217.57,-3.84 242.16,-4.89 171.87,-7.821 352.12,54.168 372.24,60.871 56.22,16.258 191.24,121.859 152.12,289.078 v 0" /><path
         id="path34"
         style="fill:#2c4b9f;fill-opacity:1;fill-rule:nonzero;stroke:none"
         d="m 1450.13,1860.52 c 0,0 -539.114,-355.54 -494.38,-516.37 l 463.25,-131.06 269.85,264.27 c 0,0 652.82,363.78 558.73,461.11 l -797.45,-77.95 v 0" /><path
         id="path36"
         style="fill:#4667ba;fill-opacity:1;fill-rule:nonzero;stroke:none"
         d="m 1740.85,1752.68 c -301.89,-262.67 -136.51,-464.8 -95.61,-659.89 l 437.08,37.67 8.78,315.19 c 181.35,80.26 370.67,227.32 179.28,504.3 -0.06,0.12 -363.51,-21.64 -529.53,-197.27 v 0" /><path
         id="path38"
         style="fill:#ed1d58;fill-opacity:1;fill-rule:nonzero;stroke:none"
         d="m 1428.37,1845.55 -243.71,232.4 -7.87,302.32 c 0,0 584.65,101.11 832.57,39.86 253.82,-63.02 382.48,-657 382.48,-657 0,0 -283.82,199.71 -548.06,69.01 -197.49,-97.93 -302.76,-43.99 -415.41,13.41 v 0" /><path
         id="path40"
         style="fill:#e0543b;fill-opacity:1;fill-rule:nonzero;stroke:none"
         d="m 1303.3,2287.68 39.86,-95.81 c 0,0 136.82,-165.21 302.13,30.17 17.4,53.52 -0.48,113.18 -0.48,113.18 l -341.51,-47.54 v 0" /><path
         id="path42"
         style="fill:#f36749;fill-opacity:1;fill-rule:nonzero;stroke:none"
         d="m 2100.72,2401.86 c 122.45,-19.41 363.58,-144.25 455.19,-204.75 -45.18,-52.23 -77.25,-118.83 -100.76,-182.75 0,0 -271.15,22.68 -514.5,147.07 -64.08,32.76 -124.53,307.06 160.07,240.43 v 0" /><path
         id="path44"
         style="fill:#f36749;fill-opacity:1;fill-rule:nonzero;stroke:none"
         d="m 2672.08,1670.33 c -90.35,96.45 -198.7,280.37 -284.52,397.57 -29.71,71.42 136.47,143.57 162.75,133.07 113.08,-134.64 171.54,-312.18 204.28,-485.67 l -82.51,-44.97 v 0" /><path
         id="path46"
         style="fill:#c41b50;fill-opacity:1;fill-rule:nonzero;stroke:none"
         d="m 1845.3,2293.93 c 6.02,55 53.15,211.22 419.81,96.75 -8.27,-128.69 -103.21,-332.46 -103.21,-332.46 0,0 -342.67,-2.53 -316.6,235.71 v 0" /><path
         id="path48"
         style="fill:#f36749;fill-opacity:1;fill-rule:nonzero;stroke:none"
         d="m 2854.12,1640.49 c -29.34,36.76 -88.27,76.18 -109.06,87.04 l -80.42,-44.79 c -14.67,-93.34 38.31,-185.16 46.75,-193.87 21.91,-22.63 30.8,-34.6 35.39,-33.04 4.6,1.57 22.63,12.99 -2.13,51.58 -54.18,84.44 28.17,51.83 94.47,-83.45 13.63,-27.83 71.29,-12.36 79.37,15.48 14.88,51.27 19.5,95.93 -64.37,201.05 v 0" /><path
         id="path50"
         style="fill:#ffffff;fill-opacity:1;fill-rule:nonzero;stroke:none"
         d="m 1382.59,846.148 -76.74,97.551 165.17,96.211 74.93,-140.191 -39.73,-86.219 -123.63,32.648 v 0" /><path
         id="path52"
         style="fill:#ffffff;fill-opacity:1;fill-rule:nonzero;stroke:none"
         d="m 1845.59,709.082 -58.75,143.449 c 0,0 123.69,84.778 197.97,45.36 6.97,-37.231 26.13,-146.442 26.13,-146.442 l -165.35,-42.367 v 0" /><path
         id="path54"
         style="fill:#262a59;fill-opacity:1;fill-rule:nonzero;stroke:none"
         d="m 1475.38,847.59 c -56.67,27.93 -96.34,0.012 -96.34,0.012 16.44,-154.903 -203.68,-255.141 -83.33,-373.43 254.07,239.199 361.74,336.359 361.74,336.359 -26.7,28.051 -94.33,90.649 -124.71,111.508 l -11.12,-14.738 -46.24,-59.711 v 0" /><path
         id="path56"
         style="fill:#ffffff;fill-opacity:1;fill-rule:nonzero;stroke:none"
         d="m 1341.14,454.961 332.04,308.75 c 8.24,7.648 8.71,20.539 1.04,28.789 l -19.93,21.441 -361.88,-336.492 19.93,-21.429 c 7.66,-8.239 20.56,-8.719 28.8,-1.059 v 0" /><path
         id="path58"
         style="fill:#262a59;fill-opacity:1;fill-rule:nonzero;stroke:none"
         d="m 1856.37,508.809 c 0,0 -6.9,107.98 -8.85,121.492 -2.23,15.371 -5.98,52.187 -10.3,70.258 -1.07,4.441 35.09,47.722 69.91,59.402 47.16,15.84 99.33,3.039 101.94,-1.832 16.72,-31.16 30.01,-69.938 49.88,-99.09 14.79,-21.668 51.83,-71.301 51.83,-71.301 l -254.41,-78.929 v 0" /><path
         id="path60"
         style="fill:#ffffff;fill-opacity:1;fill-rule:nonzero;stroke:none"
         d="m 1853.77,516.512 c 12.83,-17.571 81.47,30.879 137.17,49.668 46.75,15.769 113.37,18.082 117.86,27.449 18.66,-16.699 23.48,-62.75 23.48,-62.75 0,0 -47.87,-18.957 -107.15,-36.18 -59.29,-17.219 -125.56,-43.738 -153.55,-44.777 -25.12,21.418 -17.81,66.59 -17.81,66.59 v 0" /><path
         id="path62"
         style="fill:#f36749;fill-opacity:1;fill-rule:nonzero;stroke:none"
         d="m 1147.46,2441.39 c 115.04,-177.22 350.61,-248.02 489.8,-157.66 139.2,90.35 129.33,307.65 14.28,484.89 -115.06,177.22 -321.16,247.65 -460.36,157.29 -139.19,-90.36 -158.77,-307.28 -43.72,-484.52 v 0" /><path
         id="path64"
         style="fill:#e0543b;fill-opacity:1;fill-rule:nonzero;stroke:none"
         d="m 1528.72,2606.49 c 44.24,-22.61 99.3,-49.56 99.3,-49.56 0,0 9.61,-46.05 -40.36,-76.72 16.01,21.56 28.48,48.5 2.8,71.68 -25.67,23.18 -61.74,54.6 -61.74,54.6 v 0" /><path
         id="path66"
         style="fill:#040606;fill-opacity:1;fill-rule:nonzero;stroke:none"
         d="m 1109.6,2459.56 c 65.11,-52.72 143.4,171 135.93,258.72 110.62,-16.29 165.89,180.75 309.78,75.75 17.3,60.9 -48.7,100.26 -48.7,100.26 0,0 113.28,-24.65 168.81,-74.24 -14.31,309.63 -479.68,359.31 -586.76,142.56 -228.734,-92.53 -147.621,-366.51 20.94,-503.05 v 0" /><path
         id="path68"
         style="fill:#f36749;fill-opacity:1;fill-rule:nonzero;stroke:none"
         d="m 1178.93,2479.68 c 47.22,-15.47 75.23,-59.33 62.57,-97.97 -12.67,-38.64 -61.21,-57.42 -108.42,-41.96 -47.22,15.48 -75.24,59.35 -62.58,97.99 12.67,38.64 61.21,57.42 108.43,41.94 v 0" /><path
         id="path70"
         style="fill:#e0543b;fill-opacity:1;fill-rule:nonzero;stroke:none"
         d="m 1193.06,2374.22 c 1.12,1.18 2,2.64 2.52,4.3 7.41,23.95 1.14,45.61 -16.77,57.96 -18.34,12.65 -43.84,12.29 -60.63,-0.84 -4.73,-3.71 -5.57,-10.53 -1.87,-15.25 3.69,-4.73 10.53,-5.56 15.25,-1.87 9.2,7.19 24.54,7.22 34.91,0.07 9.98,-6.87 12.94,-18.82 8.35,-33.65 -1.77,-5.72 1.44,-11.81 7.18,-13.58 4.05,-1.26 8.3,-0.01 11.06,2.86 v 0" /></g></g></svg>